<?xml version="1.0" encoding="utf-8"?>
<!-- Generator: Adobe Illustrator 23.0.6, SVG Export Plug-In . SVG Version: 6.00 Build 0)  -->
<svg version="1.1" id="Layer_1" xmlns="http://www.w3.org/2000/svg" xmlns:xlink="http://www.w3.org/1999/xlink" x="0px" y="0px"
	 viewBox="0 0 841.89 595.28" style="enable-background:new 0 0 841.89 595.28;" xml:space="preserve">
<style type="text/css">
	.st0{fill:#020202;}
</style>
<g>
	<path class="st0" d="M273.72,172.6c-5.55-0.61-7.75-3.32-7.77-9.39c-0.01-3.44,0-6.88,0-10.32c0-6.7,1.86-9.13,7.75-10.02
		c0.11-1.53,0.45-2.98-1.28-3.98c-1.32-0.77-1.59-2.42-1.27-4.03c0.3-1.54,1.17-2.61,2.56-2.9c1.14-0.24,1.76-0.77,2.22-2.09
		c0.74-2.1,2.89-3,4.94-2.51c0.6,0.14,1.08,0.56,1.75-0.29c3.16-3.99,6.37-3.75,9.47,0.56c3.77-0.93,4.49-0.58,6.58,3.42
		c0.31,0.59,0.68,0.59,1.15,0.69c1.66,0.33,2.89,1.24,3.24,3.25c0.34,1.98-0.29,3.51-1.85,4.37c-0.86,0.47-0.74,1.16-0.74,1.89
		c-0.01,10.7,0,21.4-0.02,32.1c0,0.89,0.16,1.59,0.75,2.24c0.58,0.64,0.89,1.49,1.04,2.43c0.74,4.49,0.36,5.03-3.61,5.03
		c-8.16,0-16.32-0.05-24.47,0.04c-1.74,0.02-2.47-0.43-2.35-2.53c0.12-2.01,0.1-3.96,1.57-5.47
		C274.04,174.43,273.78,173.52,273.72,172.6z M298.71,140.02c-7.79,0-15.49,0-23.17,0c0,11.28,0,22.41,0,33.58
		c7.78,0,15.47,0,23.17,0C298.71,162.33,298.71,151.2,298.71,140.02z M276.71,133.84c-0.27,0.02-0.63,0.16-0.92,0.06
		c-1.51-0.5-2.85-0.37-3.01,1.72c-0.16,2.09,1.23,2.42,2.73,2.41c7.87-0.04,15.74-0.01,23.62-0.01c1.43,0,2.48-0.65,2.34-2.4
		c-0.13-1.7-1.12-2.31-2.61-1.8c-1.25,0.43-1.6-0.11-1.67-1.57c-0.15-2.82-2.18-4.03-4.3-2.58c-1.15,0.78-1.74,0.89-2.24-0.71
		c-0.58-1.83-1.87-2.83-3.6-2.78c-1.62,0.05-2.87,0.97-3.42,2.74c-0.47,1.5-1.03,1.62-2.23,0.78c-2.1-1.47-4.05-0.28-4.36,2.51
		C276.97,132.74,277.04,133.28,276.71,133.84z M300.62,181.07c0.18-4.56-0.6-5.47-4.49-5.48c-6.06,0-12.11,0-18.17,0
		c-3.77,0-4.61,1.05-4.31,5.48C282.6,181.07,291.56,181.07,300.62,181.07z M273.65,167.53c-2.04,0.03-3.27-0.89-3.28-3.2
		c-0.03-4.44-0.02-8.87,0-13.31c0.01-1.33,0.5-2.67,1.69-2.78c2.15-0.2,1.87-1.58,1.64-3.13c-3.15-0.4-5.71,1.58-5.93,4.96
		c-0.33,5.11-0.33,10.24,0,15.35c0.22,3.36,2.79,5.36,5.91,5C273.91,169.54,273.88,168.65,273.65,167.53z M273.85,157.83
		c0-2.14,0.02-4.28-0.01-6.42c-0.01-0.62,0.27-1.52-0.72-1.55c-0.88-0.02-1.14,0.64-1.14,1.52c0.01,4.28,0,8.56,0,12.84
		c0,0.77,0.24,1.36,1.01,1.43c0.98,0.08,0.84-0.74,0.84-1.4C273.85,162.11,273.85,159.97,273.85,157.83z"/>
	<path class="st0" d="M290.45,160.58c1.61,0.17,2.86,1.82,2.72,3.63c-0.13,1.8-1.64,3.25-3.2,3.08c-1.6-0.18-2.86-1.85-2.72-3.62
		C287.4,161.86,288.89,160.42,290.45,160.58z M290.17,165.43c0.09,0,0.18,0,0.27-0.02c0.62-0.12,1.11-0.79,1.11-1.5
		s-0.52-1.36-1.14-1.47c-0.82-0.13-1.47,0.59-1.5,1.46C288.88,164.72,289.47,165.4,290.17,165.43z"/>
	<path class="st0" d="M288.9,157.28c0.01,0.18,0,0.36-0.03,0.54c-0.19,1.36-1.34,2.46-2.56,2.46c-1.22,0-2.37-1.12-2.55-2.48
		c-0.23-1.75,0.99-3.2,2.49-3.28C287.65,154.46,288.84,155.74,288.9,157.28z"/>
	<path class="st0" d="M293.27,152.22c0,0.14,0,0.27-0.02,0.41c-0.14,1.08-0.94,2.01-1.9,2.2c-2.19,0.44-3.62-2.68-2.05-4.44
		c0.69-0.77,1.82-0.97,2.69-0.48C292.75,150.34,293.25,151.28,293.27,152.22z"/>
	<path class="st0" d="M295.18,172.19h-16.14c-1.16,0-2.1-1.07-2.1-2.38v-25.99c0-1.31,0.94-2.38,2.1-2.38l2.89,0
		c0.43,0,0.78,0.4,0.78,0.89s-0.35,0.89-0.78,0.89l-2.88,0c-0.3,0-0.55,0.27-0.55,0.6v25.99c0,0.33,0.25,0.6,0.55,0.6h16.14
		c0.3,0,0.55-0.27,0.55-0.6v-25.99c0-0.33-0.25-0.6-0.55-0.6h-9.91c-0.43,0-0.78-0.4-0.78-0.89s0.35-0.89,0.78-0.89h9.91
		c1.16,0,2.11,1.07,2.11,2.38v25.99C297.29,171.12,296.35,172.19,295.18,172.19z"/>
	<g>
		<path class="st0" d="M137.79,225.23h16.47l8.09,75.35l9.32-75.35h15.52v112.02h-11.19v-69.62l-7.25,69.62H156.8l-7.81-69.62v69.62
			h-11.19V225.23z"/>
		<path class="st0" d="M215.22,225.23h11.2v55.75l6.49-55.75h11.2v112.02h-11.2v-54.01l-6.49,54.01h-11.2V225.23z"/>
		<path class="st0" d="M272.14,225.23h11.19v48.14h5.08v-48.14h11.19v112.02h-11.19v-53.48h-5.08v53.48h-11.19V225.23z"/>
		<path class="st0" d="M327.65,225.23h11.2v55.75l6.49-55.75h11.2v112.02h-11.2v-54.01l-6.49,54.01h-11.2V225.23z"/>
		<path class="st0" d="M381.28,328.45h1.32c1.13,0,1.85-0.35,2.16-1.07c0.31-0.71,0.5-1.47,0.57-2.27c0-0.27,0-0.49,0-0.67
			c0-0.18,0-0.35,0-0.53c0-0.09,0-0.15,0-0.2c0-0.04,0-0.11,0-0.2v-98.29h11.19v100.02c0,6.94-0.85,10.96-2.54,12.07
			c-1.69,1.11-3.54,1.67-5.55,1.67c-0.07,0-0.11,0-0.14,0c-0.03,0-0.08,0-0.14,0l-6.87,0.13V328.45z"/>
		<path class="st0" d="M430.87,225.23h16.84l7.9,112.02H444.6l-1.88-31.21h-7.62l-1.69,31.21h-10.82L430.87,225.23z M442.16,295.64
			l-2.92-56.95h-0.56l-3.11,56.95H442.16z"/>
		<path class="st0" d="M486.85,235.5h-8.47v-10.27h28.13v10.27h-8.47v101.76h-11.19V235.5z"/>
		<path class="st0" d="M530.69,328.45h2.63c2.2,0,3.75-0.53,4.66-1.6c0.91-1.07,1.49-2.27,1.74-3.6c0.13-0.44,0.2-0.89,0.23-1.33
			c0.03-0.44,0.08-0.84,0.14-1.2l0.75-8.67l-12.23-86.82h12.04l5.65,58.01l4.52-58.01h11.19l-11.01,96.82
			c-0.94,8.27-2.54,13.16-4.8,14.67c-2.26,1.51-5.24,2.27-8.94,2.27l-6.59,0.13V328.45z"/>
		<path class="st0" d="M587.42,225.23h17.41c0.5,0,1.05,0.02,1.64,0.07c0.6,0.05,1.21,0.11,1.84,0.2c1.69,0.45,3.23,1.76,4.61,3.93
			c1.38,2.18,2.07,6.25,2.07,12.2v38.54c0,7.38-0.91,12.03-2.73,13.94c-1.82,1.91-3.83,2.96-6.02,3.13c-0.25,0-0.48,0-0.71,0
			c-0.22,0-0.45,0-0.71,0h-6.21v40.01h-11.19V225.23z M599.94,286.97c1,0,1.9-0.38,2.68-1.13c0.78-0.75,1.18-2.2,1.18-4.33v-40.27
			c0-1.78-0.25-3.13-0.75-4.07c-0.5-0.93-1.48-1.44-2.92-1.53l-1.51-0.13v51.48H599.94z"/>
		<path class="st0" d="M647.36,225.23h16.84l7.9,112.02h-11.01l-1.88-31.21h-7.62l-1.69,31.21h-10.82L647.36,225.23z M658.65,295.64
			l-2.92-56.95h-0.56l-3.11,56.95H658.65z"/>
	</g>
	<polygon class="st0" points="759.29,424.71 714.47,424.71 714.47,419.97 755.13,419.97 755.13,152.73 714.47,152.73 714.47,147.99 
		759.29,147.99 	"/>
	<polygon class="st0" points="109.09,424.71 62.86,424.71 62.86,147.99 109.09,147.99 109.09,152.73 67.01,152.73 67.01,419.97 
		109.09,419.97 	"/>
	<g>
		<path class="st0" d="M361.56,360.62h1.39v13.88l11.97-13.88h1.91l-8.21,9.32l8.56,11.8h-1.83l-7.73-10.68l-4.67,5.31v5.37h-1.39
			V360.62z"/>
		<path class="st0" d="M387.89,360.47h1.34l8.75,21.27h-1.53l-2.39-5.91h-11.08l-2.39,5.91h-1.45L387.89,360.47z M393.47,374.41
			l-4.94-12.22l-4.96,12.22H393.47z"/>
		<path class="st0" d="M409.22,380.17c-0.3,0-0.89,0-0.89,0c-5.5,0-8.64-4.07-8.64-9.02c0-4.95,3.14-9.05,8.64-9.05
			c0,0,0.59,0,0.89,0v-2.14h1.39v2.14c0.3,0,0.89,0,0.89,0c5.5,0,8.64,4.1,8.64,9.05c0,4.95-3.14,9.02-8.64,9.02c0,0-0.59,0-0.89,0
			v2.35h-1.39V380.17z M409.22,378.76v-15.24h-0.89c-4.62,0.09-7.19,3.2-7.19,7.63s2.58,7.51,7.19,7.6H409.22z M411.51,378.76
			c4.61-0.09,7.19-3.17,7.19-7.6s-2.57-7.54-7.19-7.63h-0.89v15.24H411.51z"/>
		<path class="st0" d="M424.28,360.62h13.36v1.45h-11.97v8.3h10.76v1.45h-10.76v8.48h12.1v1.45h-13.5V360.62z"/>
	</g>
	<rect x="243.47" y="369.86" class="st0" width="101.74" height="3.85"/>
	<rect x="457.78" y="369.86" class="st0" width="101.74" height="3.85"/>
	<g>
		<path class="st0" d="M403.42,140.76l0.3-1.16c0.46-1.76-0.31-2.54-1.8-3.28c-1.15-0.57-1.77-1.25-1.9-2.07
			c-0.15-0.88,0.26-1.84,1.29-3.02l1.07-1.23l-0.46,1.66c-0.42,1.52-0.25,2.06,0.87,2.77c0.24,0.15,0.49,0.27,0.75,0.4
			c0.19,0.09,0.37,0.18,0.56,0.29c1.15,0.64,1.77,1.4,1.83,2.25c0.06,0.89-0.49,1.8-1.63,2.71L403.42,140.76z M400.98,133.02
			c-0.21,0.41-0.29,0.77-0.24,1.07c0.09,0.52,0.58,1,1.47,1.45c1.27,0.63,2.4,1.46,2.38,3.14c0.41-0.46,0.61-0.89,0.58-1.27
			c-0.05-0.66-0.79-1.21-1.41-1.56c-0.17-0.1-0.35-0.18-0.53-0.27c-0.28-0.14-0.55-0.27-0.82-0.44
			C401.48,134.57,401.03,133.93,400.98,133.02z"/>
		<path class="st0" d="M409.89,141.53l0.49-1.86c0.94-3.62-0.63-5.2-3.66-6.71c-2.23-1.12-3.44-2.42-3.7-3.99
			c-0.28-1.69,0.52-3.55,2.53-5.85l1.72-1.97l-0.73,2.65c-0.85,3.08-0.49,4.25,1.78,5.69c0.48,0.3,0.98,0.55,1.49,0.79
			c0.37,0.18,0.75,0.36,1.11,0.57c2.24,1.24,3.43,2.7,3.55,4.34c0.12,1.7-0.95,3.46-3.17,5.24L409.89,141.53z M404.93,126
			c-0.63,1.05-0.88,1.95-0.75,2.71c0.18,1.1,1.17,2.08,3.02,3c2.57,1.28,4.85,2.98,4.63,6.5c1.02-1.06,1.52-2.05,1.46-2.93
			c-0.1-1.4-1.62-2.53-2.89-3.23c-0.35-0.19-0.7-0.37-1.06-0.54c-0.54-0.26-1.09-0.53-1.6-0.86
			C405.71,129.38,404.85,128.05,404.93,126z"/>
		<path class="st0" d="M414.41,176.78h-14.53c-0.46,0-0.91-0.16-1.29-0.47l-0.58-0.47c-0.56-0.45-1.08-0.88-1.61-1.29
			c-2.08-1.62-3.2-4.12-4.08-6.33c-2.77-6.96-3.93-14.43-4.81-20.88c-0.12-0.81,0.07-1.61,0.51-2.21c0.42-0.56,1.03-0.89,1.67-0.89
			h34.85c0.59,0,1.17,0.27,1.59,0.75c0.42,0.48,0.65,1.11,0.64,1.78c0,0.3-0.03,0.61-0.09,0.93c-0.05,0.31-0.09,0.63-0.12,0.96
			c-0.04,0.46,0.24,0.89,0.63,0.99l0.44,0.11c4.74,1.29,7.59,6.61,6.62,12.37c-0.86,5.17-5.31,8.8-9.92,8.07
			c-0.75-0.12-1.5-0.24-2.24-0.37l-0.24-0.04c-0.31-0.05-0.58,0.1-0.75,0.37l-0.27,0.44c-0.6,1.01-1.18,1.96-1.9,2.81
			c-0.72,0.83-1.55,1.5-2.42,2.2l-0.81,0.66C415.34,176.61,414.88,176.78,414.41,176.78z M389.7,145.89c-0.29,0-0.47,0.17-0.57,0.3
			c-0.17,0.23-0.24,0.55-0.19,0.87c0.87,6.37,2.01,13.71,4.7,20.48c0.84,2.1,1.8,4.27,3.58,5.65c0.54,0.42,1.07,0.85,1.63,1.31
			l0.58,0.47c0.13,0.11,0.29,0.17,0.45,0.17h14.53c0.16,0,0.33-0.06,0.47-0.18l0.83-0.68c0.82-0.66,1.6-1.29,2.23-2.01
			c0.64-0.74,1.17-1.63,1.74-2.58l0.27-0.45c0.48-0.8,1.31-1.19,2.15-1.07l0.24,0.04c0.73,0.12,1.48,0.25,2.22,0.37
			c3.85,0.61,7.59-2.43,8.31-6.75c0.81-4.88-1.57-9.37-5.54-10.46l-0.4-0.1c-1.13-0.26-1.89-1.45-1.78-2.77
			c0.03-0.37,0.07-0.73,0.13-1.09c0.04-0.22,0.06-0.43,0.06-0.63c0-0.23-0.08-0.44-0.22-0.61c-0.15-0.17-0.36-0.27-0.57-0.27H389.7z
			 M425.39,167.45c-0.55,0-1.12-0.07-1.73-0.2c-0.62-0.14-1.14-0.55-1.47-1.15c-0.33-0.61-0.42-1.36-0.25-2.07l2.33-9.64
			c0.29-1.22,1.33-2.03,2.41-1.87c2.03,0.28,3.76,1.79,4.75,4.13c1.24,2.96,0.66,6.46-1.45,8.71
			C428.67,166.76,427.16,167.45,425.39,167.45z M426.42,154.15c-0.34,0-0.66,0.27-0.76,0.68l-2.33,9.65
			c-0.06,0.27-0.03,0.54,0.09,0.76c0.12,0.21,0.3,0.36,0.52,0.4c2.08,0.46,3.68-0.01,5.06-1.48c1.65-1.76,2.1-4.49,1.13-6.79
			c-0.77-1.83-2.09-3-3.62-3.21C426.48,154.15,426.45,154.15,426.42,154.15z"/>
		<g>
			<path class="st0" d="M424.35,181.99h-4.24c-0.4,0-0.72-0.37-0.72-0.82s0.32-0.82,0.72-0.82h4.24c0.2,0,0.39-0.07,0.51-0.18
				c0.04-0.03,0.12-0.12,0.12-0.22c0-0.16-0.25-0.4-0.64-0.4h-34.6c-0.2,0-0.39,0.07-0.51,0.18c-0.04,0.04-0.12,0.13-0.12,0.22
				c0,0.16,0.25,0.4,0.64,0.4h4.61c0.4,0,0.72,0.37,0.72,0.82s-0.32,0.82-0.72,0.82h-4.61c-1.17,0-2.08-0.9-2.08-2.05
				c0-0.58,0.24-1.11,0.67-1.51c0.39-0.35,0.89-0.54,1.41-0.54h34.6c1.15,0,2.08,0.92,2.08,2.05c0,0.58-0.25,1.13-0.67,1.52
				C425.38,181.8,424.88,181.99,424.35,181.99z"/>
			<path class="st0" d="M418.44,183.37H395.9l-1.86-1.54c-0.32-0.27-0.4-0.78-0.16-1.15c0.23-0.37,0.68-0.45,1.01-0.18l1.48,1.22
				h21.65l1.71-1.25c0.33-0.24,0.78-0.14,1,0.25c0.22,0.38,0.12,0.89-0.22,1.14L418.44,183.37z"/>
		</g>
	</g>
	<path class="st0" d="M511.33,141.58l-0.01-3.07c0-1.06,0.32-2.06,0.92-2.81c0.62-0.78,1.45-1.22,2.33-1.22l29.19-0.13
		c1.06,0.05,1.94,0.48,2.64,1.35c0.68,0.85,1.06,1.98,1.06,3.18l0.01,2.54L511.33,141.58z M543.79,136.22
		C543.78,136.22,543.78,136.22,543.79,136.22l-29.2,0.13c-0.42,0-0.82,0.21-1.13,0.6c-0.33,0.41-0.5,0.97-0.5,1.56l0,1.2l32.88-0.14
		l0-0.67c0-0.73-0.23-1.42-0.63-1.93C544.82,136.49,544.32,136.22,543.79,136.22z"/>
	<path class="st0" d="M515.4,136.32l-0.02-5.31c0-0.99,0.69-1.81,1.53-1.81l24.43-0.11c0,0,0,0,0.01,0c0.42,0,0.81,0.19,1.1,0.53
		c0.29,0.34,0.44,0.78,0.44,1.26l0.02,5.31L515.4,136.32z M541.31,130.9l-24.38,0.11l0.05,3.49l24.35-0.1L541.31,130.9z"/>
	<path class="st0" d="M536.77,184.29c-0.01,0-0.02,0-0.02,0l-14.75-0.08c-2.03-0.02-3.75-1.76-4-4.07l-4.38-40.27l31.58-0.14
		l-4.28,40.35C540.66,182.49,538.87,184.29,536.77,184.29z M515.37,141.64l4.17,38.29c0.15,1.42,1.21,2.5,2.47,2.51l14.75,0.08
		c0,0,0.01,0,0.01,0c1.33,0,2.45-1.14,2.61-2.65l4.07-38.35L515.37,141.64z"/>
	<rect x="517.37" y="169.39" class="st0" width="24.2" height="1.93"/>
	<rect x="515.05" y="146.06" class="st0" width="28.98" height="1.93"/>
</g>
</svg>
